<svg width="1037" height="963" viewBox="0 0 1037 963" fill="none" xmlns="http://www.w3.org/2000/svg">
<path d="M646.8 0.299805C567.9 0.299805 502.9 61.1998 496.5 138.5C465.5 117.9 428.4 105.8 388.4 105.8C353.9 105.8 321.5 114.8 293.3 130.5C276.9 127 259.8 125.1 242.4 125.1C109.2 125.1 0.899902 233.4 0.899902 366.6C0.899902 422.8 20.1999 474.6 52.4999 515.7C35.1999 555.4 26.1999 598.5 26.1999 643.1C26.1999 728.4 59.3999 808.6 119.7 868.9C180 929.2 260.2 962.4 345.5 962.4C430.8 962.4 511 929.2 571.3 868.9C600.7 839.5 623.7 805.3 639.5 768.2C664.7 774.5 690.8 777.7 717.4 777.7C802.7 777.7 882.9 744.5 943.2 684.2C1003.5 623.9 1036.7 543.7 1036.7 458.4C1036.7 373.1 1003.5 292.9 943.2 232.6C902.3 191.7 852.2 163.2 797.5 149.2C796.5 66.7998 729.3 0.299805 646.8 0.299805ZM388.4 107.2C428.3 107.2 465.5 119.3 496.3 140.1C496 143.7 495.9 147.4 495.9 151.1C495.9 174 501.1 195.8 510.3 215.3C503.9 220.8 497.6 226.5 491.6 232.6C480.9 243.3 471.1 254.6 462.2 266.4C431.2 198.7 369.8 147.7 295.5 131C323.1 115.8 354.8 107.2 388.4 107.2ZM581.9 287.2C582.2 291.8 582.4 296.5 582.4 301.2C582.4 337.9 572.2 372.2 554.4 401.5C532.8 382.8 509 367.2 483.7 355C483.2 345.3 482.2 335.7 480.6 326.3C499.9 302 524.9 282.3 553.5 269.4C562.2 276.4 571.7 282.3 581.9 287.2ZM555 268.8C562.5 265.5 570.2 262.7 578.1 260.3C579.9 268.5 581.1 276.9 581.8 285.5C572.2 280.9 563.2 275.3 555 268.8ZM388.4 495.1C371.4 495.1 354.9 492.9 339.2 488.8C353.8 466 374.4 447.5 398.8 435.3C398.3 442.9 398 450.6 398 458.3C398 470.6 398.7 482.7 400.1 494.7C396.3 495 392.4 495.1 388.4 495.1ZM399.5 458.3C399.5 450.3 399.8 442.4 400.4 434.6C412.4 428.8 425.2 424.6 438.6 422.2C437.5 430.4 437 438.8 437 447.4C437 461.3 438.5 474.8 441.2 487.9C428.5 491.5 415.2 493.8 401.6 494.7C400.2 482.7 399.5 470.6 399.5 458.3ZM482.3 356.1C482.5 359.6 482.5 363.1 482.5 366.6C482.5 384.5 480.5 402 476.8 418.8C472.9 418.5 469 418.3 465.1 418.3C456.6 418.3 448.3 419 440.2 420.4C443.8 394.5 452.5 370.2 465.2 348.5C471.1 351 476.7 353.5 482.3 356.1ZM466.1 347.2C470.1 340.5 474.6 334 479.4 327.8C480.8 336.5 481.8 345.3 482.2 354.3C476.9 351.8 471.6 349.4 466.1 347.2ZM476.5 420.2C471.3 443 462.8 464.7 451.5 484.5C448.5 485.5 445.5 486.5 442.5 487.4C439.8 474.5 438.4 461.1 438.4 447.3C438.4 438.7 439 430.2 440.1 421.9C448.2 420.5 456.6 419.8 465.2 419.8C469 419.8 472.8 420 476.5 420.2ZM438.8 420.7C425.3 423.1 412.5 427.3 400.5 433C403.2 398.5 411.5 365.6 424.4 335.1C438 338.6 451.2 342.9 464 348.1C451.1 369.9 442.4 394.5 438.8 420.7ZM441.5 489.2C442.1 492.1 442.8 494.9 443.5 497.7C433.8 512.6 422.4 526.3 409.7 538.7C406.1 524.8 403.4 510.6 401.7 496.1C415.4 495.1 428.7 492.8 441.5 489.2ZM442.9 488.8C445.5 488.1 448 487.3 450.5 486.4C448.6 489.7 446.6 492.9 444.6 496.1C444 493.7 443.4 491.2 442.9 488.8ZM452.5 485.7C482.5 475.2 509.3 457.7 530.6 435C580.2 459.3 614.5 510.3 614.5 569.2C614.5 594.4 608.2 618.1 597.2 639C523.5 625.1 464.4 569.6 445.1 497.9C447.7 493.9 450.2 489.9 452.5 485.7ZM453.6 483.8C464.6 464.2 472.9 442.8 478 420.3C496.2 421.9 513.6 426.7 529.4 434.3C508.5 456.3 482.6 473.5 453.6 483.8ZM478.2 419C481.9 402.1 483.9 384.6 483.9 366.6C483.9 363.3 483.8 360 483.7 356.8C509 369.1 532.4 384.6 553.5 402.8C546.8 413.7 539 423.9 530.3 433.2C514.3 425.5 496.8 420.6 478.2 419ZM480.3 324.5C476.8 304.7 470.9 285.8 462.9 268C477 249.2 493.2 232 511 216.7C520.8 236.9 535 254.5 552.2 268.5C524.1 281.3 499.5 300.6 480.3 324.5ZM479.1 326C473.9 332.6 469.1 339.5 464.8 346.7C451.8 341.5 438.5 337.1 424.9 333.7C434.7 310.7 447.2 289.2 461.9 269.3C469.9 287.2 475.7 306.1 479.1 326ZM423.4 333.3C398.2 327 372.1 323.8 345.5 323.8C295.1 323.8 246.5 335.4 202.7 357.3C197.3 339.5 194.4 320.7 194.4 301.2C194.4 228.7 234.4 165.3 293.5 132.1C368.3 148.4 430.1 199.6 461.1 267.7C445.9 288.1 433.3 310.1 423.4 333.3ZM345.5 325.2C372.1 325.2 398 328.5 422.8 334.7C409.7 365.9 401.6 399.3 399 433.7C373.9 446 352.8 465 337.8 488.4C273.8 471.1 222.8 421.8 203.2 358.8C246.1 337.3 294.4 325.2 345.5 325.2ZM337.1 489.6C322.7 512.7 314.4 540 314.4 569.2C314.4 578 315.2 586.6 316.6 595C293.3 602.6 268.4 606.7 242.5 606.7C166.4 606.7 98.3999 571.1 54.3999 515.6C83.9999 448.1 136.5 392.8 202 359.5C221.8 422.7 272.9 472.1 337.1 489.6ZM315.7 569.2C315.7 540.1 324 513 338.5 490C354.4 494.2 371.2 496.5 388.4 496.5C392.4 496.5 396.3 496.4 400.3 496.1C402 510.9 404.8 525.5 408.6 539.8C383.1 564.3 352.2 583.2 318 594.5C316.5 586.3 315.7 577.9 315.7 569.2ZM409 541.4C423.3 594.9 451.5 643.9 491.6 684.1C500.3 692.8 509.5 701 519 708.5C502.3 715 484.1 718.5 465.1 718.5C391.9 718.5 330.8 665.5 318.1 595.9C352.4 584.6 383.4 565.8 409 541.4ZM410.2 540.2C422.9 527.9 434.3 514.3 444 499.5C463.7 571 522.8 626.2 596.5 640.3C579.9 670.8 553.1 694.9 520.7 707.9C467.6 665.9 428.1 607.4 410.2 540.2ZM597.9 640.6C609.4 642.7 621.3 643.8 633.4 643.8C643.6 643.8 653.6 643 663.4 641.5C663.4 642 663.4 642.6 663.4 643.1C663.4 686.8 654.5 728.4 638.5 766.4C595.4 755.4 555.9 735.5 521.8 708.9C554.5 695.6 581.4 671.3 597.9 640.6ZM633.4 642.4C621.5 642.4 609.9 641.3 598.6 639.3C609.6 618.4 615.9 594.5 615.9 569.2C615.9 509.9 581.5 458.5 531.6 433.9C540.2 424.6 547.9 414.6 554.6 403.8C620.6 461.5 662.5 546 663.4 640.1C653.7 641.6 643.6 642.4 633.4 642.4ZM571.3 417.3C566.1 412.1 560.8 407.2 555.4 402.5C573.4 372.9 583.8 338.3 583.8 301.2C583.8 296.7 583.6 292.3 583.3 287.9C602.6 296.9 624.1 301.9 646.7 301.9C677 301.9 705.3 292.9 728.9 277.4C788.2 310.9 828.4 374.5 828.4 447.4C828.4 544.3 757.4 624.8 664.8 639.9C664 555.8 630.9 476.8 571.3 417.3ZM646.8 300.4C624.1 300.4 602.6 295.3 583.3 286.2C582.6 277.2 581.3 268.5 579.5 259.9C596.7 254.9 614.8 252.3 633.5 252.3C667.6 252.3 699.7 261.1 727.7 276.6C704.3 291.7 676.5 300.4 646.8 300.4ZM633.4 250.9C614.6 250.9 596.3 253.6 579.1 258.5C573.4 233.2 562.9 209.7 548.4 189.1C597.4 158.2 655.3 140.3 717.4 140.3C744.6 140.3 770.9 143.7 796.1 150.2C796.1 150.5 796.1 150.7 796.1 151C796.1 203 769.4 248.9 728.9 275.7C700.7 259.9 668.1 250.9 633.4 250.9ZM577.8 259C569.5 261.4 561.5 264.4 553.8 267.9C536.3 253.9 522 236.2 512.2 215.8C523.3 206.4 535 197.8 547.3 189.9C561.6 210.4 572.1 233.7 577.8 259ZM511.4 214.3C502.4 195.1 497.3 173.7 497.3 151.1C497.3 147.7 497.4 144.4 497.6 141C516.4 153.9 532.9 170 546.2 188.6C534.2 196.3 522.5 204.9 511.4 214.3ZM2.2999 366.6C2.2999 234.2 110 126.5 242.4 126.5C259.2 126.5 275.6 128.2 291.5 131.5C232.7 165.2 193 228.6 193 301.1C193 320.8 196 339.9 201.4 357.9C171.6 373 144 392.9 119.6 417.3C91.1999 445.7 68.7999 478.5 52.9999 514.2C21.2999 473.5 2.2999 422.2 2.2999 366.6ZM345.5 961C170.2 961 27.5999 818.4 27.5999 643.1C27.5999 598.4 36.8999 555.8 53.6999 517.1C97.9999 572.6 166.2 608.2 242.5 608.2C268.4 608.2 293.4 604.1 316.8 596.5C329.6 666.6 391.3 720 465.1 720C484.5 720 503.1 716.3 520.2 709.6C555.2 737.2 595.2 756.9 637.9 767.8C589.4 881.3 476.6 961 345.5 961ZM1035.3 458.3C1035.3 633.6 892.7 776.2 717.4 776.2C690.8 776.2 664.9 772.9 640.1 766.7C656.3 728.1 664.8 686.2 664.8 643.1C664.8 642.5 664.8 641.9 664.8 641.3C758.2 626.2 829.8 545 829.8 447.4C829.8 374.3 789.7 310.4 730.3 276.6C770.8 249.5 797.5 203.4 797.5 151.1C797.5 151 797.5 150.8 797.5 150.7C934.2 186.2 1035.3 310.7 1035.3 458.3ZM796.1 148.7C770.7 142.3 744.3 139 717.4 139C656.3 139 597.9 156 547.5 187.8C534 168.9 517.1 152.4 497.9 139.3C503.9 62.3998 568.4 1.5998 646.8 1.5998C728.4 1.6998 794.9 67.3998 796.1 148.7Z" fill="#004A98"/>
<path d="M318.6 584.899C324 584.899 328.4 589.299 328.4 594.699C328.4 600.099 324 604.499 318.6 604.499C313.2 604.499 308.8 600.099 308.8 594.699C308.7 589.299 313.2 584.899 318.6 584.899Z" fill="#004A98"/>
<path d="M796.9 142.5C802.3 142.5 806.7 146.9 806.7 152.3C806.7 157.7 802.3 162.1 796.9 162.1C791.5 162.1 787.1 157.7 787.1 152.3C787.1 146.9 791.4 142.5 796.9 142.5Z" fill="#74C3D5"/>
<path d="M811.2 518.399C816.6 518.399 821 522.799 821 528.199C821 533.599 816.6 537.999 811.2 537.999C805.8 537.999 801.4 533.599 801.4 528.199C801.4 522.799 805.8 518.399 811.2 518.399Z" fill="#004A98"/>
<path d="M639.4 756.7C644.8 756.7 649.2 761.1 649.2 766.5C649.2 771.9 644.8 776.3 639.4 776.3C634 776.3 629.6 771.9 629.6 766.5C629.6 761.1 634 756.7 639.4 756.7Z" fill="#74C3D5"/>
<path d="M615.2 739.399V743.799H610.8V747.199H615.2V751.599H618.6V747.199H623V743.799H618.6V739.399H615.2Z" fill="#FF595A"/>
<path d="M292.1 572.7V577.1H287.7V580.5H292.1V584.9H295.5V580.5H299.9V577.1H295.5V572.7H292.1Z" fill="#74C3D5"/>
<path d="M212.1 332.7V337.2H207.6V340.5H212.1V344.9H215.4V340.5H219.8V337.2H215.4V332.7H212.1Z" fill="#004A98"/>
<path d="M438.2 237.5V242H433.8V245.3H438.2V249.7H441.5V245.3H446V242H441.5V237.5H438.2Z" fill="#004A98"/>
<path d="M527.6 179.1V183.6H523.2V186.9H527.6V191.3H531V186.9H535.4V183.6H531V179.1H527.6Z" fill="#FF595A"/>
<path d="M747.9 621.2V625.6H743.5V629H747.9V633.4H751.3V629H755.7V625.6H751.3V621.2H747.9Z" fill="white"/>
<path d="M795.2 498.899V503.299H790.8V506.699H795.2V511.099H798.5V506.699H803V503.299H798.5V498.899H795.2Z" fill="#FF595A"/>
<path d="M507.2 724.1V730.8H500.5V735.8H507.2V742.4H512.2V735.8H518.8V730.8H512.2V724.1H507.2Z" fill="#004A98"/>
<path d="M422.1 249.7V256.4H415.5V261.4H422.1V268.1H427.1V261.4H433.8V256.4H427.1V249.7H422.1Z" fill="white"/>
<path d="M774.3 715C775.5 714.5 776.7 714 778 713.4L777.4 712.1C776.2 712.6 775 713.2 773.8 713.7L774.3 715Z" fill="white"/>
<path d="M766.9 717.999C768.1 717.499 769.4 716.999 770.6 716.499L770.1 715.199C768.9 715.699 767.6 716.199 766.4 716.699L766.9 717.999Z" fill="white"/>
<path d="M891.4 609.899C892.1 608.699 892.7 607.599 893.3 606.399L892.1 605.699C891.5 606.899 890.8 607.999 890.2 609.199L891.4 609.899Z" fill="white"/>
<path d="M759.4 720.799C760.7 720.399 761.9 719.899 763.2 719.499L762.7 718.199C761.5 718.699 760.2 719.099 758.9 719.499L759.4 720.799Z" fill="white"/>
<path d="M795.9 704.599C797.1 703.999 798.2 703.299 799.4 702.699L798.7 701.499C797.5 702.199 796.4 702.799 795.2 703.399L795.9 704.599Z" fill="white"/>
<path d="M816.4 692.1C817.5 691.3 818.6 690.6 819.7 689.8L818.9 688.6C817.8 689.4 816.7 690.1 815.6 690.9L816.4 692.1Z" fill="white"/>
<path d="M809.7 696.5C810.8 695.8 811.899 695.1 813.099 694.3L812.299 693.1C811.199 693.8 810.1 694.5 809 695.3L809.7 696.5Z" fill="white"/>
<path d="M802.9 700.699C804.1 699.999 805.2 699.299 806.3 698.599L805.6 697.399C804.5 698.099 803.3 698.799 802.2 699.399L802.9 700.699Z" fill="white"/>
<path d="M743.7 724.2L744.1 725.6C745.4 725.2 746.7 724.9 748 724.5L747.6 723.1C746.2 723.5 745 723.8 743.7 724.2Z" fill="white"/>
<path d="M788.8 708.3C790 707.7 791.2 707.1 792.4 706.5L791.7 705.3C790.5 705.9 789.4 706.5 788.2 707.1L788.8 708.3Z" fill="white"/>
<path d="M728.2 727.799L728.5 729.199C729.8 728.899 731.1 728.699 732.4 728.399L732.1 726.999C730.8 727.299 729.5 727.599 728.2 727.799Z" fill="white"/>
<path d="M680.6 732.6V734C681.9 734 683.3 734 684.6 734V732.6C683.3 732.6 682 732.6 680.6 732.6Z" fill="white"/>
<path d="M672.7 732.499V733.899C674 733.899 675.4 733.999 676.7 733.999V732.599C675.3 732.499 674 732.499 672.7 732.499Z" fill="white"/>
<path d="M688.6 732.399V733.799C689.9 733.799 691.3 733.699 692.6 733.599L692.5 732.199C691.3 732.299 689.9 732.399 688.6 732.399Z" fill="white"/>
<path d="M656.8 731.399L656.7 732.799C658 732.899 659.4 732.999 660.7 733.199L660.8 731.799C659.4 731.699 658.1 731.599 656.8 731.399Z" fill="white"/>
<path d="M664.7 732.1L664.6 733.5C665.9 733.6 667.3 733.7 668.6 733.7L668.7 732.3C667.4 732.2 666 732.2 664.7 732.1Z" fill="white"/>
<path d="M736 726.1L736.299 727.5C737.599 727.2 738.9 726.9 740.2 726.5L739.9 725.1C738.5 725.5 737.2 725.8 736 726.1Z" fill="white"/>
<path d="M538 687.5C539.1 688.3 540.199 689.1 541.299 689.8L542.099 688.6C540.999 687.8 539.9 687.1 538.9 686.3L538 687.5Z" fill="white"/>
<path d="M720.3 729.3L720.5 730.7C721.8 730.5 723.1 730.2 724.5 730L724.2 728.6C722.9 728.8 721.6 729.1 720.3 729.3Z" fill="white"/>
<path d="M712.4 730.499L712.6 731.899C713.9 731.699 715.2 731.499 716.6 731.299L716.4 729.899C715.1 730.099 713.8 730.299 712.4 730.499Z" fill="white"/>
<path d="M704.5 731.399L704.599 732.799C705.899 732.699 707.299 732.499 708.599 732.399L708.4 730.999C707.2 731.099 705.8 731.299 704.5 731.399Z" fill="white"/>
<path d="M696.6 731.999L696.7 733.399C698 733.299 699.4 733.199 700.7 733.099L700.6 731.699C699.2 731.899 697.9 731.999 696.6 731.999Z" fill="white"/>
<path d="M869.099 643.2C869.899 642.2 870.799 641.1 871.599 640L870.5 639.1C869.7 640.2 868.9 641.2 868 642.2L869.099 643.2Z" fill="white"/>
<path d="M491.8 643.2C492.6 644.2 493.5 645.3 494.3 646.3L495.4 645.4C494.6 644.4 493.7 643.3 492.9 642.3L491.8 643.2Z" fill="white"/>
<path d="M822.9 687.499C824 686.699 824.999 685.899 826.099 685.099L825.2 683.999C824.1 684.799 823.1 685.599 822 686.399L822.9 687.499Z" fill="white"/>
<path d="M496.9 649.299C497.8 650.299 498.6 651.299 499.5 652.299L500.6 651.399C499.7 650.399 498.8 649.399 498 648.399L496.9 649.299Z" fill="white"/>
<path d="M864 649.399C864.9 648.399 865.7 647.399 866.6 646.299L865.5 645.399C864.7 646.399 863.8 647.399 862.9 648.499L864 649.399Z" fill="white"/>
<path d="M486.9 636.799C487.7 637.899 488.5 638.899 489.3 639.999L490.4 639.099C489.6 637.999 488.8 636.999 488 635.899L486.9 636.799Z" fill="white"/>
<path d="M887.4 616.8C888.1 615.7 888.8 614.5 889.4 613.3L888.2 612.6C887.5 613.8 886.9 614.9 886.2 616L887.4 616.8Z" fill="white"/>
<path d="M874 636.8C874.8 635.7 875.6 634.6 876.4 633.6L875.3 632.8C874.5 633.9 873.7 635 872.9 636L874 636.8Z" fill="white"/>
<path d="M858.7 655.399C859.6 654.399 860.5 653.399 861.4 652.399L860.3 651.499C859.4 652.499 858.5 653.499 857.6 654.499L858.7 655.399Z" fill="white"/>
<path d="M883.2 623.7C883.9 622.6 884.6 621.4 885.4 620.3L884.2 619.6C883.5 620.7 882.8 621.9 882.1 623L883.2 623.7Z" fill="white"/>
<path d="M878.7 630.299C879.5 629.199 880.2 628.099 881 626.999L879.799 626.199C879.099 627.299 878.3 628.399 877.5 629.499L878.7 630.299Z" fill="white"/>
<path d="M482.3 630.3C483.1 631.4 483.8 632.5 484.6 633.6L485.7 632.8C484.9 631.7 484.2 630.6 483.4 629.6L482.3 630.3Z" fill="white"/>
<path d="M648.8 730.499L648.6 731.899C649.9 732.099 651.3 732.199 652.6 732.399L652.8 730.999C651.5 730.799 650.2 730.699 648.8 730.499Z" fill="white"/>
<path d="M525.4 677.6C526.4 678.5 527.5 679.3 528.5 680.2L529.4 679.1C528.4 678.3 527.3 677.4 526.3 676.6L525.4 677.6Z" fill="white"/>
<path d="M835.5 677.599C836.5 676.699 837.5 675.899 838.5 674.999L837.6 673.899C836.6 674.799 835.6 675.599 834.6 676.499L835.5 677.599Z" fill="white"/>
<path d="M531.6 682.6C532.7 683.4 533.7 684.2 534.8 685.1L535.7 684C534.6 683.2 533.6 682.4 532.5 681.6L531.6 682.6Z" fill="white"/>
<path d="M519.3 672.3C520.3 673.2 521.3 674.1 522.3 675L523.2 673.9C522.2 673 521.2 672.1 520.2 671.3L519.3 672.3Z" fill="white"/>
<path d="M829.3 682.599C830.4 681.799 831.4 680.899 832.4 680.099L831.5 678.999C830.5 679.799 829.4 680.699 828.4 681.499L829.3 682.599Z" fill="white"/>
<path d="M502.2 655.399C503.1 656.399 504 657.399 504.9 658.299L505.9 657.299C505 656.299 504.1 655.399 503.2 654.399L502.2 655.399Z" fill="white"/>
<path d="M841.6 672.3C842.6 671.4 843.6 670.5 844.6 669.6L843.6 668.6C842.6 669.5 841.6 670.4 840.7 671.3L841.6 672.3Z" fill="white"/>
<path d="M853.2 661.2C854.1 660.2 855.1 659.3 856 658.3L855 657.3C854.1 658.3 853.2 659.2 852.2 660.2L853.2 661.2Z" fill="white"/>
<path d="M507.7 661.199C508.6 662.199 509.6 663.099 510.5 663.999L511.5 662.999C510.6 662.099 509.6 661.099 508.7 660.199L507.7 661.199Z" fill="white"/>
<path d="M847.5 666.9C848.5 666 849.4 665 850.4 664.1L849.4 663.1C848.5 664 847.5 665 846.5 665.9L847.5 666.9Z" fill="white"/>
<path d="M513.4 666.799C514.4 667.699 515.3 668.599 516.3 669.599L517.3 668.599C516.3 667.699 515.4 666.799 514.4 665.899L513.4 666.799Z" fill="white"/>
<path d="M751.3 721.899L751.7 723.199C753 722.799 754.3 722.399 755.5 721.999L755.1 720.699C753.9 721.099 752.6 721.499 751.3 721.899Z" fill="white"/>
<path d="M522.2 310.499C521.2 311.399 520.2 312.299 519.2 313.199L520.1 314.199C521.1 313.299 522.1 312.399 523.1 311.599L522.2 310.499Z" fill="white"/>
<path d="M516.3 315.899C515.3 316.799 514.3 317.699 513.4 318.699L514.4 319.699C515.4 318.799 516.3 317.899 517.3 316.999L516.3 315.899Z" fill="white"/>
<path d="M534.7 300.399C533.6 301.199 532.6 301.999 531.5 302.799L532.4 303.899C533.4 303.099 534.499 302.299 535.599 301.499L534.7 300.399Z" fill="white"/>
<path d="M510.5 321.399C509.6 322.299 508.6 323.299 507.7 324.199L508.7 325.199C509.6 324.199 510.6 323.299 511.5 322.399L510.5 321.399Z" fill="white"/>
<path d="M528.4 305.399C527.4 306.199 526.3 307.099 525.3 307.999L526.2 309.099C527.2 308.199 528.2 307.399 529.3 306.599L528.4 305.399Z" fill="white"/>
<path d="M541.1 295.699C540 296.499 538.9 297.299 537.9 297.999L538.7 299.099C539.8 298.299 540.8 297.499 541.9 296.799L541.1 295.699Z" fill="white"/>
<path d="M504.9 327.199C504 328.199 503.1 329.199 502.2 330.099L503.2 330.999C504.1 329.999 505 328.999 505.9 328.099L504.9 327.199Z" fill="white"/>
<path d="M484.5 351.899C483.7 352.999 482.9 354.099 482.2 355.199L483.4 355.999C484.2 354.899 484.9 353.799 485.7 352.699L484.5 351.899Z" fill="white"/>
<path d="M489.3 345.499C488.5 346.599 487.7 347.599 486.9 348.699L488 349.499C488.8 348.399 489.6 347.399 490.4 346.299L489.3 345.499Z" fill="white"/>
<path d="M499.5 333.1C498.6 334.1 497.7 335.1 496.9 336.1L498 337C498.9 336 499.7 335 500.6 334L499.5 333.1Z" fill="white"/>
<path d="M494.3 339.199C493.4 340.199 492.6 341.299 491.8 342.299L492.9 343.199C493.7 342.199 494.6 341.099 495.4 340.099L494.3 339.199Z" fill="white"/>
<path d="M620.9 260.2L620.6 258.8C619.3 259.1 618 259.5 616.7 259.8L617.1 261.2C618.4 260.9 619.7 260.6 620.9 260.2Z" fill="white"/>
<path d="M652.3 254.399L652.1 252.999C650.8 253.199 649.4 253.299 648.1 253.499L648.3 254.899C649.6 254.799 651 254.599 652.3 254.399Z" fill="white"/>
<path d="M644.4 255.5L644.2 254.1C642.9 254.3 641.6 254.5 640.2 254.7L640.4 256.1C641.8 255.9 643.1 255.7 644.4 255.5Z" fill="white"/>
<path d="M660.2 253.599L660.1 252.199C658.8 252.299 657.4 252.399 656.1 252.599L656.2 253.999C657.6 253.899 658.9 253.799 660.2 253.599Z" fill="white"/>
<path d="M668.2 253.099L668.1 251.699C666.8 251.799 665.4 251.799 664.1 251.899L664.2 253.299C665.5 253.299 666.8 253.199 668.2 253.099Z" fill="white"/>
<path d="M676.1 252.799V251.399C674.8 251.399 673.4 251.499 672.1 251.499V252.899C673.5 252.899 674.8 252.899 676.1 252.799Z" fill="white"/>
<path d="M447.5 550.199L446.1 550.499C446.4 551.799 446.7 553.099 447.1 554.399L448.5 553.999C448.2 552.799 447.8 551.499 447.5 550.199Z" fill="white"/>
<path d="M636.5 256.799L636.2 255.399C634.9 255.599 633.6 255.899 632.3 256.199L632.6 257.599C633.9 257.299 635.2 257.099 636.5 256.799Z" fill="white"/>
<path d="M613.3 262.299L612.9 260.899C611.6 261.299 610.3 261.699 609.1 262.099L609.5 263.399C610.7 263.099 612 262.699 613.3 262.299Z" fill="white"/>
<path d="M605.2 263.399C603.9 263.799 602.7 264.199 601.4 264.699L601.9 265.999C603.2 265.599 604.4 265.099 605.7 264.699L605.2 263.399Z" fill="white"/>
<path d="M628.7 258.399L628.4 256.999C627.1 257.299 625.8 257.599 624.5 257.899L624.799 259.299C626.099 258.999 627.4 258.699 628.7 258.399Z" fill="white"/>
<path d="M641 729.3L640.8 730.7C642.1 730.9 643.4 731.1 644.8 731.3L645 729.9C643.6 729.8 642.3 729.6 641 729.3Z" fill="white"/>
<path d="M597.6 265.999C596.3 266.499 595.1 266.899 593.8 267.399L594.3 268.699C595.5 268.199 596.8 267.799 598 267.299L597.6 265.999Z" fill="white"/>
<path d="M558.8 699.499L558.1 700.699C559.3 701.399 560.4 701.999 561.6 702.699L562.3 701.499C561.1 700.799 560 700.199 558.8 699.499Z" fill="white"/>
<path d="M580.099 710.6L579.5 711.9C580.7 712.5 581.9 713 583.2 713.6L583.799 712.3C582.499 711.7 581.299 711.2 580.099 710.6Z" fill="white"/>
<path d="M594.8 716.8L594.3 718.1C595.6 718.6 596.8 719 598.1 719.5L598.6 718.2C597.3 717.8 596 717.3 594.8 716.8Z" fill="white"/>
<path d="M565.8 703.399L565.1 704.599C566.3 705.199 567.5 705.899 568.6 706.499L569.3 705.299C568.1 704.699 566.9 704.099 565.8 703.399Z" fill="white"/>
<path d="M572.9 707.1L572.3 708.4C573.5 709 574.7 709.6 575.9 710.2L576.5 708.9C575.2 708.3 574 707.7 572.9 707.1Z" fill="white"/>
<path d="M587.4 713.8L586.9 715.1C588.1 715.6 589.4 716.1 590.6 716.6L591.1 715.3C589.8 714.9 588.6 714.4 587.4 713.8Z" fill="white"/>
<path d="M625.299 726.199L625 727.599C626.3 727.899 627.6 728.199 628.9 728.499L629.2 727.099C627.9 726.799 626.599 726.499 625.299 726.199Z" fill="white"/>
<path d="M633.1 727.899L632.8 729.299C634.1 729.599 635.4 729.799 636.7 730.099L637 728.699C635.7 728.399 634.4 728.199 633.1 727.899Z" fill="white"/>
<path d="M602.3 719.6L601.8 720.9C603.1 721.3 604.3 721.8 605.6 722.2L606 720.9C604.8 720.4 603.6 720 602.3 719.6Z" fill="white"/>
<path d="M609.9 721.999L609.5 723.299C610.8 723.699 612.099 724.099 613.299 724.399L613.7 722.999C612.5 722.799 611.2 722.399 609.9 721.999Z" fill="white"/>
<path d="M617.6 724.3L617.2 725.7C618.5 726 619.8 726.4 621.1 726.7L621.4 725.3C620.2 724.9 618.9 724.6 617.6 724.3Z" fill="white"/>
<path d="M545.299 690.899L544.5 692.099C545.6 692.899 546.699 693.599 547.799 694.299L548.599 693.099C547.599 692.399 546.399 691.699 545.299 690.899Z" fill="white"/>
<path d="M457.2 580.6L455.9 581.1C456.4 582.3 456.9 583.6 457.4 584.8L458.7 584.3C458.2 583 457.7 581.8 457.2 580.6Z" fill="white"/>
<path d="M460.2 587.899L458.9 588.499C459.4 589.699 460 590.899 460.5 592.199L461.8 591.599C461.3 590.299 460.7 589.099 460.2 587.899Z" fill="white"/>
<path d="M463.5 595.199L462.2 595.799C462.8 596.999 463.4 598.199 463.9 599.399L465.2 598.799C464.6 597.499 464.1 596.399 463.5 595.199Z" fill="white"/>
<path d="M454.4 573.1L453.1 573.6C453.5 574.9 454 576.1 454.5 577.4L455.8 576.9C455.3 575.6 454.8 574.3 454.4 573.1Z" fill="white"/>
<path d="M451.799 565.499L450.5 565.899C450.9 567.199 451.3 568.399 451.7 569.699L453 569.299C452.7 568.099 452.199 566.799 451.799 565.499Z" fill="white"/>
<path d="M467 602.3L465.7 602.9C466.3 604.1 466.9 605.3 467.6 606.4L468.8 605.7C468.2 604.6 467.6 603.5 467 602.3Z" fill="white"/>
<path d="M552 695.3L551.2 696.5C552.3 697.2 553.5 697.9 554.6 698.6L555.3 697.4C554.3 696.7 553.1 696 552 695.3Z" fill="white"/>
<path d="M449.5 557.899L448.1 558.299C448.5 559.599 448.8 560.899 449.2 562.199L450.5 561.799C450.3 560.499 449.9 559.199 449.5 557.899Z" fill="white"/>
<path d="M479 622.899L477.8 623.699C478.5 624.799 479.3 625.899 480 626.999L481.2 626.199C480.4 625.099 479.7 623.999 479 622.899Z" fill="white"/>
<path d="M474.8 616.199L473.6 616.899C474.3 617.999 475 619.199 475.7 620.299L476.9 619.599C476.1 618.399 475.4 617.299 474.8 616.199Z" fill="white"/>
<path d="M470.8 609.3L469.6 610C470.2 611.2 470.9 612.3 471.6 613.5L472.8 612.8C472.1 611.6 471.4 610.4 470.8 609.3Z" fill="white"/>
<path d="M781.599 711.8C782.799 711.2 784 710.7 785.2 710.1L784.599 708.8C783.399 709.4 782.2 709.9 781 710.5L781.599 711.8Z" fill="white"/>
<path d="M843.8 316.899L844.8 315.899C843.8 314.999 842.8 314.099 841.8 313.199L840.9 314.199C841.8 315.099 842.8 315.999 843.8 316.899Z" fill="white"/>
<path d="M870.6 346.4L871.7 345.5C870.9 344.4 870.1 343.4 869.2 342.3L868.1 343.2C868.9 344.3 869.8 345.3 870.6 346.4Z" fill="white"/>
<path d="M849.5 322.499L850.5 321.499C849.6 320.599 848.6 319.599 847.6 318.699L846.6 319.699C847.6 320.599 848.6 321.499 849.5 322.499Z" fill="white"/>
<path d="M812.4 292.299L813.2 291.099C812.1 290.399 810.999 289.599 809.799 288.899L809 290.099C810.2 290.899 811.3 291.599 812.4 292.299Z" fill="white"/>
<path d="M860.4 334.099L861.5 333.199C860.6 332.199 859.7 331.199 858.8 330.199L857.8 331.099C858.7 332.099 859.6 333.099 860.4 334.099Z" fill="white"/>
<path d="M855.1 328.2L856.1 327.2C855.2 326.2 854.3 325.3 853.3 324.3L852.3 325.3C853.2 326.3 854.2 327.2 855.1 328.2Z" fill="white"/>
<path d="M819 296.8L819.8 295.6C818.7 294.8 817.6 294.1 816.5 293.3L815.7 294.5C816.8 295.3 817.9 296.1 819 296.8Z" fill="white"/>
<path d="M544.4 293.399L545.2 294.599C546.3 293.899 547.4 293.099 548.5 292.399L547.7 291.199C546.6 291.899 545.5 292.599 544.4 293.399Z" fill="white"/>
<path d="M825.4 301.6L826.3 300.5C825.2 299.7 824.2 298.9 823.1 298.1L822.3 299.2C823.3 300 824.4 300.7 825.4 301.6Z" fill="white"/>
<path d="M831.7 306.499L832.6 305.399C831.6 304.599 830.5 303.699 829.5 302.899L828.6 303.999C829.6 304.799 830.7 305.599 831.7 306.499Z" fill="white"/>
<path d="M837.8 311.599L838.7 310.499C837.7 309.599 836.7 308.799 835.7 307.899L834.8 308.999C835.8 309.899 836.8 310.699 837.8 311.599Z" fill="white"/>
<path d="M865.599 340.1L866.7 339.2C865.8 338.2 864.999 337.1 864.099 336.1L863 337C863.9 338.1 864.799 339.1 865.599 340.1Z" fill="white"/>
<path d="M892.2 379.699L893.4 378.999C892.8 377.799 892.1 376.699 891.5 375.499L890.3 376.199C890.9 377.399 891.5 378.599 892.2 379.699Z" fill="white"/>
<path d="M899.2 394L900.5 393.4C899.9 392.2 899.399 391 898.799 389.8L897.5 390.4C898.1 391.6 898.6 392.8 899.2 394Z" fill="white"/>
<path d="M875.3 352.699L876.4 351.899C875.6 350.799 874.8 349.699 874 348.699L872.9 349.499C873.8 350.599 874.6 351.699 875.3 352.699Z" fill="white"/>
<path d="M895.799 386.8L897.099 386.2C896.499 385 895.899 383.8 895.299 382.6L894 383.2C894.6 384.4 895.199 385.6 895.799 386.8Z" fill="white"/>
<path d="M462.1 389.9L463.4 390.5C464 389.3 464.5 388.1 465.1 386.9L463.8 386.3C463.2 387.5 462.6 388.7 462.1 389.9Z" fill="white"/>
<path d="M465.6 382.7L466.9 383.3C467.5 382.1 468.1 380.9 468.8 379.8L467.6 379.1C466.9 380.4 466.2 381.5 465.6 382.7Z" fill="white"/>
<path d="M477.7 361.9L478.9 362.7C479.6 361.6 480.4 360.5 481.1 359.4L479.9 358.6C479.1 359.6 478.4 360.7 477.7 361.9Z" fill="white"/>
<path d="M879.9 359.299L881.1 358.499C880.4 357.399 879.6 356.299 878.8 355.199L877.6 355.999C878.4 357.099 879.1 358.199 879.9 359.299Z" fill="white"/>
<path d="M473.4 368.7L474.6 369.4C475.3 368.3 476 367.1 476.7 366L475.5 365.3C474.8 366.4 474.1 367.5 473.4 368.7Z" fill="white"/>
<path d="M884.2 365.999L885.4 365.299C884.7 364.199 884 362.999 883.3 361.899L882.1 362.699C882.8 363.699 883.5 364.799 884.2 365.999Z" fill="white"/>
<path d="M888.3 372.799L889.5 372.099C888.8 370.899 888.2 369.799 887.5 368.699L886.3 369.399C886.9 370.499 887.6 371.599 888.3 372.799Z" fill="white"/>
<path d="M469.4 375.6L470.6 376.3C471.2 375.1 471.9 374 472.6 372.8L471.4 372.1C470.7 373.3 470.1 374.5 469.4 375.6Z" fill="white"/>
<path d="M551.1 288.999L551.9 290.199C553 289.499 554.1 288.799 555.3 288.099L554.6 286.899C553.3 287.599 552.2 288.299 551.1 288.999Z" fill="white"/>
<path d="M739.7 260.2L740 258.8C738.7 258.5 737.4 258.2 736.1 257.8L735.8 259.2C737.1 259.5 738.4 259.8 739.7 260.2Z" fill="white"/>
<path d="M755 264.6L755.4 263.3C754.1 262.9 752.8 262.5 751.6 262.1L751.2 263.4C752.5 263.8 753.7 264.2 755 264.6Z" fill="white"/>
<path d="M762.6 267.2L763.1 265.9C761.8 265.4 760.6 265 759.3 264.6L758.8 265.9C760.1 266.3 761.3 266.8 762.6 267.2Z" fill="white"/>
<path d="M724.1 256.799L724.4 255.399C723.1 255.199 721.8 254.899 720.4 254.699L720.2 256.099C721.5 256.299 722.8 256.499 724.1 256.799Z" fill="white"/>
<path d="M747.4 262.3L747.799 260.9C746.499 260.5 745.2 260.2 743.9 259.8L743.5 261.2C744.8 261.5 746.1 261.9 747.4 262.3Z" fill="white"/>
<path d="M692.4 253.099L692.5 251.699C691.2 251.599 689.8 251.599 688.5 251.499V252.899C689.8 252.999 691.1 252.999 692.4 253.099Z" fill="white"/>
<path d="M680.1 252.799H680.4C681.7 252.799 683.1 252.799 684.4 252.799V251.399C683.1 251.399 681.7 251.399 680.4 251.399H680.1V252.799Z" fill="white"/>
<path d="M716.2 255.399L716.4 253.999C715.1 253.799 713.8 253.599 712.4 253.399L712.2 254.799C713.6 255.099 714.9 255.299 716.2 255.399Z" fill="white"/>
<path d="M708.3 254.4L708.5 253C707.2 252.8 705.8 252.7 704.5 252.6L704.4 254C705.7 254.1 707 254.2 708.3 254.4Z" fill="white"/>
<path d="M700.4 253.599L700.5 252.199C699.2 252.099 697.8 251.999 696.5 251.899L696.4 253.299C697.7 253.399 699.1 253.499 700.4 253.599Z" fill="white"/>
<path d="M731.9 258.3L732.2 256.9C730.9 256.6 729.599 256.3 728.299 256.1L728 257.5C729.3 257.8 730.6 258 731.9 258.3Z" fill="white"/>
<path d="M564.9 280.799L565.6 281.999C566.8 281.399 567.9 280.699 569.1 280.099L568.4 278.899C567.2 279.599 566 280.199 564.9 280.799Z" fill="white"/>
<path d="M791.8 280.1L792.5 278.9C791.3 278.3 790.1 277.7 788.9 277.1L788.3 278.4C789.4 278.9 790.6 279.5 791.8 280.1Z" fill="white"/>
<path d="M798.8 284L799.5 282.8C798.3 282.1 797.2 281.5 796 280.8L795.3 282C796.5 282.7 797.6 283.3 798.8 284Z" fill="white"/>
<path d="M557.9 284.8L558.6 286C559.7 285.3 560.9 284.7 562 284L561.3 282.8C560.2 283.4 559.1 284.1 557.9 284.8Z" fill="white"/>
<path d="M770 270.1L770.5 268.8C769.3 268.3 768 267.8 766.8 267.3L766.3 268.6C767.6 269.1 768.8 269.6 770 270.1Z" fill="white"/>
<path d="M805.7 287.999L806.4 286.799C805.3 286.099 804.1 285.399 803 284.699L802.3 285.899C803.4 286.699 804.5 287.299 805.7 287.999Z" fill="white"/>
<path d="M571.9 277.1L572.5 278.4C573.7 277.8 574.9 277.2 576.1 276.6L575.5 275.3C574.3 275.9 573.1 276.5 571.9 277.1Z" fill="white"/>
<path d="M777.4 273.2L778 271.9C776.8 271.4 775.5 270.8 774.3 270.3L773.8 271.6C775 272.1 776.2 272.7 777.4 273.2Z" fill="white"/>
<path d="M586.4 270.399L587 271.699C588.2 271.199 589.4 270.699 590.7 270.199L590.2 268.899C588.9 269.399 587.7 269.899 586.4 270.399Z" fill="white"/>
<path d="M784.7 276.499L785.3 275.199C784.1 274.599 782.9 273.999 781.7 273.499L781.1 274.799C782.3 275.399 783.5 275.999 784.7 276.499Z" fill="white"/>
<path d="M579.1 273.599L579.7 274.899C580.9 274.299 582.1 273.799 583.3 273.299L582.7 271.999C581.6 272.499 580.3 273.099 579.1 273.599Z" fill="white"/>
<path d="M910.5 565.699C910.9 564.399 911.3 563.099 911.7 561.899L910.3 561.499C909.9 562.799 909.5 563.999 909.1 565.299L910.5 565.699Z" fill="white"/>
<path d="M440.2 514.999L441.6 514.899C441.5 513.599 441.4 512.299 441.3 510.899L439.9 510.999C440 512.299 440.1 513.599 440.2 514.999Z" fill="white"/>
<path d="M920.4 518.599C920.5 517.299 920.699 515.899 920.799 514.599L919.4 514.499C919.3 515.799 919.2 517.099 919 518.499L920.4 518.599Z" fill="white"/>
<path d="M919.4 526.599C919.6 525.299 919.8 523.999 919.9 522.599L918.5 522.399C918.3 523.699 918.2 524.999 918 526.399L919.4 526.599Z" fill="white"/>
<path d="M921.1 510.599C921.2 509.299 921.3 507.899 921.4 506.599L920 506.499C919.9 507.799 919.8 509.199 919.7 510.499L921.1 510.599Z" fill="white"/>
<path d="M920.3 486.6H921.7C921.7 485.3 921.6 483.9 921.6 482.6L920.2 482.7C920.2 484 920.2 485.3 920.3 486.6Z" fill="white"/>
<path d="M439.3 498.999H440.7C440.7 497.699 440.6 496.299 440.6 494.999H439.2C439.2 496.299 439.2 497.599 439.3 498.999Z" fill="white"/>
<path d="M439.6 506.999L441 506.899C440.9 505.599 440.9 504.199 440.8 502.899L439.4 502.999C439.4 504.299 439.5 505.599 439.6 506.999Z" fill="white"/>
<path d="M920.4 492.7L920.3 494.6H921.8V492.7V490.6H920.3L920.4 492.7Z" fill="white"/>
<path d="M440.6 490.999C440.6 489.699 440.6 488.299 440.7 486.999H439.3C439.3 488.299 439.2 489.699 439.2 490.999H440.6Z" fill="white"/>
<path d="M921.6 502.6C921.7 501.3 921.7 499.9 921.7 498.6H920.3C920.3 499.9 920.2 501.3 920.2 502.6H921.6Z" fill="white"/>
<path d="M442.2 530.9L443.6 530.7C443.4 529.4 443.2 528.1 443 526.8L441.6 527C441.8 528.2 442 529.6 442.2 530.9Z" fill="white"/>
<path d="M441 522.899L442.4 522.699C442.2 521.399 442.1 520.099 441.9 518.699L440.5 518.899C440.7 520.299 440.9 521.599 441 522.899Z" fill="white"/>
<path d="M918.2 534.5C918.4 533.2 918.6 531.9 918.9 530.5L917.5 530.3C917.3 531.6 917.1 532.9 916.8 534.2L918.2 534.5Z" fill="white"/>
<path d="M908 573.299C908.4 571.999 908.9 570.799 909.3 569.499L908 568.999C907.6 570.299 907.1 571.499 906.7 572.799L908 573.299Z" fill="white"/>
<path d="M898.799 595.6C899.399 594.4 899.9 593.2 900.5 591.9L899.2 591.3C898.7 592.5 898.1 593.7 897.5 594.9L898.799 595.6Z" fill="white"/>
<path d="M458.8 397.3L460.1 397.9C460.6 396.7 461.2 395.5 461.7 394.2L460.4 393.6C459.8 394.8 459.3 396 458.8 397.3Z" fill="white"/>
<path d="M895.2 602.8C895.8 601.6 896.4 600.4 897 599.2L895.7 598.6C895.1 599.8 894.5 601 893.9 602.2L895.2 602.8Z" fill="white"/>
<path d="M905.2 580.799C905.7 579.599 906.2 578.299 906.6 576.999L905.3 576.499C904.8 577.799 904.4 578.999 903.9 580.199L905.2 580.799Z" fill="white"/>
<path d="M912.8 557.999C913.2 556.699 913.5 555.399 913.8 554.099L912.4 553.699C912.1 554.999 911.7 556.299 911.4 557.499L912.8 557.999Z" fill="white"/>
<path d="M443.6 538.8L445 538.5C444.7 537.2 444.5 535.9 444.3 534.6L442.9 534.8C443.1 536.1 443.3 537.5 443.6 538.8Z" fill="white"/>
<path d="M916.6 542.399C916.9 541.099 917.1 539.799 917.4 538.499L916 538.199C915.7 539.499 915.5 540.799 915.2 542.099L916.6 542.399Z" fill="white"/>
<path d="M914.9 550.199C915.2 548.899 915.499 547.599 915.799 546.299L914.4 545.999C914.1 547.299 913.8 548.599 913.5 549.899L914.9 550.199Z" fill="white"/>
<path d="M445.2 546.599L446.6 546.299C446.3 544.999 446 543.699 445.7 542.399L444.3 542.699C444.6 543.999 444.9 545.299 445.2 546.599Z" fill="white"/>
<path d="M902.1 588.3C902.6 587.1 903.2 585.8 903.7 584.6L902.4 584.1C901.9 585.3 901.4 586.6 900.8 587.8L902.1 588.3Z" fill="white"/>
<path d="M448.1 427.6L449.5 428C449.9 426.7 450.2 425.4 450.6 424.2L449.3 423.8C448.8 425 448.4 426.3 448.1 427.6Z" fill="white"/>
<path d="M450.3 419.9L451.6 420.3C452 419 452.4 417.8 452.8 416.5L451.5 416.1C451.2 417.3 450.8 418.6 450.3 419.9Z" fill="white"/>
<path d="M910.3 423.8L911.7 423.4C911.3 422.1 910.9 420.8 910.5 419.6L909.2 420C909.6 421.3 909.9 422.5 910.3 423.8Z" fill="white"/>
<path d="M912.5 431.499L913.9 431.099C913.6 429.799 913.2 428.499 912.8 427.199L911.4 427.599C911.8 428.899 912.1 430.199 912.5 431.499Z" fill="white"/>
<path d="M440.8 482.999C440.9 481.699 440.9 480.299 441 478.999L439.6 478.899C439.5 480.199 439.5 481.599 439.4 482.899L440.8 482.999Z" fill="white"/>
<path d="M914.4 439.199L915.799 438.899C915.499 437.599 915.2 436.299 914.9 434.999L913.5 435.299C913.8 436.699 914.1 437.899 914.4 439.199Z" fill="white"/>
<path d="M455.7 404.699L457 405.199C457.5 403.999 458 402.699 458.5 401.499L457.2 400.999C456.7 402.199 456.2 403.499 455.7 404.699Z" fill="white"/>
<path d="M902.3 401.3L903.6 400.8C903.1 399.6 902.6 398.3 902 397.1L900.7 397.7C901.3 398.8 901.8 400.1 902.3 401.3Z" fill="white"/>
<path d="M907.9 416.199L909.2 415.799C908.8 414.499 908.3 413.299 907.9 411.999L906.6 412.499C907.1 413.699 907.5 414.999 907.9 416.199Z" fill="white"/>
<path d="M905.2 408.699L906.5 408.199C906 406.899 905.6 405.699 905.1 404.499L903.8 404.999C904.3 406.199 904.8 407.499 905.2 408.699Z" fill="white"/>
<path d="M452.9 412.299L454.2 412.799C454.6 411.499 455.1 410.299 455.6 408.999L454.3 408.499C453.8 409.699 453.3 410.999 452.9 412.299Z" fill="white"/>
<path d="M446 435.3L447.4 435.6C447.7 434.3 448 433 448.4 431.7L447 431.3C446.7 432.8 446.3 434 446 435.3Z" fill="white"/>
<path d="M441.9 467.099C442 465.799 442.2 464.499 442.4 463.099L441 462.899C440.8 464.199 440.7 465.599 440.5 466.899L441.9 467.099Z" fill="white"/>
<path d="M918.5 462.8L919.9 462.6C919.7 461.3 919.6 459.9 919.4 458.6L918 458.8C918.2 460.2 918.3 461.5 918.5 462.8Z" fill="white"/>
<path d="M919.4 470.7L920.799 470.6C920.699 469.3 920.5 467.9 920.4 466.6L919 466.7C919.1 468.1 919.2 469.4 919.4 470.7Z" fill="white"/>
<path d="M441.2 474.999C441.3 473.699 441.4 472.299 441.5 470.999L440.1 470.899C440 472.199 439.9 473.599 439.8 474.899L441.2 474.999Z" fill="white"/>
<path d="M920 478.7L921.4 478.6C921.3 477.3 921.2 475.9 921.1 474.6L919.7 474.7C919.8 476 919.9 477.3 920 478.7Z" fill="white"/>
<path d="M917.4 454.899L918.8 454.699C918.6 453.399 918.4 452.099 918.1 450.699L916.7 450.899C917 452.299 917.2 453.599 917.4 454.899Z" fill="white"/>
<path d="M444.1 451.3C444.3 450 444.6 448.7 444.8 447.4L443.4 447.1C443.1 448.4 442.9 449.7 442.7 451L444.1 451.3Z" fill="white"/>
<path d="M442.9 459.2C443.1 457.9 443.3 456.6 443.5 455.3L442.1 455.1C441.9 456.4 441.7 457.7 441.5 459.1L442.9 459.2Z" fill="white"/>
<path d="M916 447L917.4 446.7C917.1 445.4 916.9 444.1 916.6 442.8L915.2 443.1C915.5 444.4 915.8 445.7 916 447Z" fill="white"/>
<path d="M445.6 443.5C445.9 442.2 446.2 440.9 446.4 439.6L445 439.3C444.7 440.6 444.4 441.9 444.1 443.2L445.6 443.5Z" fill="white"/>
<path d="M472.9 473.1L473.3 474.5C474.6 474.1 475.9 473.7 477.1 473.3L476.7 472C475.5 472.4 474.2 472.8 472.9 473.1Z" fill="#74C3D5"/>
<path d="M488.5 469.4C489.7 468.9 491 468.4 492.2 467.9L491.7 466.6C490.5 467.1 489.2 467.6 488 468.1L488.5 469.4Z" fill="#74C3D5"/>
<path d="M481 472.1C482.3 471.7 483.5 471.2 484.8 470.8L484.3 469.5C483.1 469.9 481.8 470.4 480.5 470.8L481 472.1Z" fill="#74C3D5"/>
<path d="M495.9 466.4C497.1 465.9 498.3 465.3 499.5 464.8L498.9 463.5C497.7 464 496.5 464.6 495.3 465.1L495.9 466.4Z" fill="#74C3D5"/>
<path d="M465.3 475.199L465.6 476.599C466.9 476.299 468.2 475.899 469.5 475.599L469.1 474.199C467.8 474.599 466.5 474.899 465.3 475.199Z" fill="#74C3D5"/>
<path d="M524.1 451.4C525.2 450.7 526.3 450 527.4 449.2L526.6 448C525.5 448.7 524.4 449.5 523.3 450.2L524.1 451.4Z" fill="#74C3D5"/>
<path d="M530.8 447C531.9 446.2 533 445.5 534.1 444.7L533.3 443.6C532.2 444.4 531.2 445.1 530.1 445.9L530.8 447Z" fill="#74C3D5"/>
<path d="M510.3 459.499C511.5 458.899 512.6 458.199 513.8 457.599L513.1 456.399C511.9 456.999 510.8 457.699 509.6 458.299L510.3 459.499Z" fill="#74C3D5"/>
<path d="M503.2 463.1C504.4 462.5 505.6 461.9 506.8 461.3L506.2 460C505 460.6 503.8 461.2 502.6 461.7L503.2 463.1Z" fill="#74C3D5"/>
<path d="M457.5 476.999L457.8 478.399C459.1 478.099 460.4 477.799 461.7 477.599L461.4 476.199C460.1 476.399 458.8 476.699 457.5 476.999Z" fill="#74C3D5"/>
<path d="M410.1 480.8L410 482.2C411.3 482.3 412.7 482.3 414 482.3V480.9C412.7 480.9 411.4 480.9 410.1 480.8Z" fill="#74C3D5"/>
<path d="M418 481V482.4C419.3 482.4 420.7 482.4 422 482.4V481C420.7 481 419.3 481 418 481Z" fill="#74C3D5"/>
<path d="M394.2 479.6L394 481C395.3 481.2 396.7 481.3 398 481.4L398.1 480C396.8 479.9 395.5 479.7 394.2 479.6Z" fill="#74C3D5"/>
<path d="M402.1 480.399L402 481.799C403.3 481.899 404.7 481.999 406 482.099L406.1 480.699C404.8 480.499 403.4 480.499 402.1 480.399Z" fill="#74C3D5"/>
<path d="M449.7 478.399L449.9 479.799C451.2 479.599 452.5 479.399 453.8 479.099L453.5 477.699C452.3 477.999 451 478.199 449.7 478.399Z" fill="#74C3D5"/>
<path d="M426 480.8L426.1 482.2C427.4 482.1 428.8 482.1 430.1 482L430 480.6C428.6 480.7 427.3 480.8 426 480.8Z" fill="#74C3D5"/>
<path d="M441.8 479.5L442 480.9C443.3 480.7 444.7 480.6 446 480.4L445.8 479C444.4 479.2 443.1 479.4 441.8 479.5Z" fill="#74C3D5"/>
<path d="M433.9 480.299L434 481.699C435.3 481.599 436.7 481.499 438 481.299L437.9 479.899C436.5 480.099 435.2 480.199 433.9 480.299Z" fill="#74C3D5"/>
<path d="M537.2 442.299C538.3 441.499 539.3 440.699 540.4 439.799L539.5 438.699C538.5 439.499 537.4 440.299 536.4 441.099L537.2 442.299Z" fill="#74C3D5"/>
<path d="M585.6 389.299C586.3 388.199 587 386.999 587.7 385.899L586.5 385.199C585.8 386.299 585.1 387.499 584.4 388.599L585.6 389.299Z" fill="#74C3D5"/>
<path d="M581.2 395.999C582 394.899 582.7 393.799 583.4 392.699L582.2 391.899C581.5 392.999 580.7 394.099 580 395.199L581.2 395.999Z" fill="#74C3D5"/>
<path d="M589.7 382.399C590.4 381.199 591 380.099 591.7 378.899L590.5 378.199C589.9 379.399 589.2 380.499 588.6 381.699L589.7 382.399Z" fill="#74C3D5"/>
<path d="M576.6 402.6C577.4 401.5 578.2 400.4 579 399.4L577.9 398.6C577.1 399.7 576.3 400.8 575.6 401.8L576.6 402.6Z" fill="#74C3D5"/>
<path d="M597.1 368.199C597.7 366.999 598.2 365.799 598.8 364.499L597.5 363.899C597 365.099 596.4 366.299 595.9 367.499L597.1 368.199Z" fill="#74C3D5"/>
<path d="M593.5 375.399C594.1 374.199 594.7 372.999 595.3 371.799L594 371.199C593.4 372.399 592.8 373.599 592.2 374.799L593.5 375.399Z" fill="#74C3D5"/>
<path d="M603.3 353.4C603.8 352.1 604.2 350.9 604.7 349.6L603.4 349.1C603 350.4 602.5 351.6 602.1 352.9L603.3 353.4Z" fill="#74C3D5"/>
<path d="M600.3 360.8C600.8 359.6 601.3 358.3 601.8 357.1L600.5 356.6C600 357.8 599.5 359.1 599 360.3L600.3 360.8Z" fill="#74C3D5"/>
<path d="M571.6 408.899C572.4 407.899 573.3 406.799 574.1 405.799L573 404.899C572.2 405.899 571.4 406.999 570.5 407.999L571.6 408.899Z" fill="#74C3D5"/>
<path d="M274.7 420.899C275.6 421.899 276.5 422.799 277.5 423.799L278.5 422.799C277.6 421.899 276.6 420.899 275.7 419.899L274.7 420.899Z" fill="#74C3D5"/>
<path d="M549.6 432.099C550.6 431.199 551.6 430.299 552.6 429.399L551.6 428.399C550.6 429.299 549.7 430.199 548.7 431.099L549.6 432.099Z" fill="#74C3D5"/>
<path d="M286.1 432.1C287.1 433 288.1 433.9 289.1 434.7L290 433.6C289 432.7 288 431.9 287 431L286.1 432.1Z" fill="#74C3D5"/>
<path d="M280.3 426.599C281.3 427.499 282.2 428.399 283.2 429.399L284.2 428.399C283.2 427.499 282.3 426.599 281.3 425.699L280.3 426.599Z" fill="#74C3D5"/>
<path d="M543.5 437.3C544.5 436.5 545.5 435.6 546.6 434.7L545.7 433.6C544.7 434.5 543.7 435.3 542.7 436.2L543.5 437.3Z" fill="#74C3D5"/>
<path d="M561.1 420.9C562 419.9 562.9 419 563.8 418L562.8 417.1C561.9 418.1 561 419 560.1 420L561.1 420.9Z" fill="#74C3D5"/>
<path d="M555.4 426.6C556.4 425.7 557.3 424.7 558.2 423.8L557.2 422.8C556.3 423.7 555.3 424.7 554.4 425.6L555.4 426.6Z" fill="#74C3D5"/>
<path d="M269.3 415C270.2 416 271.1 417 272 418L273 417C272.1 416 271.2 415 270.3 414L269.3 415Z" fill="#74C3D5"/>
<path d="M566.5 415C567.4 414 568.3 413 569.1 412L568 411.1C567.1 412.1 566.3 413.1 565.4 414.1L566.5 415Z" fill="#74C3D5"/>
<path d="M386.3 478.5L386.1 479.9C387.4 480.1 388.7 480.3 390.1 480.5L390.3 479.1C389 478.9 387.6 478.7 386.3 478.5Z" fill="#74C3D5"/>
<path d="M247.3 381.8L246.1 382.5C246.8 383.7 247.4 384.8 248.1 386L249.3 385.3C248.6 384.1 248 383 247.3 381.8Z" fill="#74C3D5"/>
<path d="M240 367.699L238.7 368.299C239.3 369.499 239.8 370.699 240.4 371.899L241.7 371.299C241.1 370.099 240.6 368.899 240 367.699Z" fill="#74C3D5"/>
<path d="M271.8 151.6C270.9 152.6 270 153.6 269.1 154.6L270.2 155.5C271.1 154.5 272 153.5 272.9 152.5L271.8 151.6Z" fill="#74C3D5"/>
<path d="M277.3 145.8C276.4 146.8 275.4 147.7 274.5 148.7L275.5 149.7C276.4 148.7 277.3 147.8 278.3 146.8L277.3 145.8Z" fill="#74C3D5"/>
<path d="M227 330.3L225.6 330.6C225.9 331.9 226.2 333.2 226.6 334.5L228 334.1C227.6 332.9 227.3 331.6 227 330.3Z" fill="#74C3D5"/>
<path d="M283.1 140.199C282.1 141.099 281.2 141.999 280.2 142.999L281.2 143.999C282.2 143.099 283.1 142.199 284.1 141.299L283.1 140.199Z" fill="#74C3D5"/>
<path d="M236.8 360.5L235.5 361C236 362.2 236.5 363.5 237.1 364.7L238.4 364.1C237.8 362.9 237.3 361.7 236.8 360.5Z" fill="#74C3D5"/>
<path d="M233.9 353.1L232.6 353.6C233.1 354.9 233.5 356.1 234 357.3L235.3 356.8C234.8 355.6 234.3 354.4 233.9 353.1Z" fill="#74C3D5"/>
<path d="M231.3 345.6L230 346C230.4 347.3 230.8 348.5 231.3 349.8L232.6 349.3C232.1 348.1 231.7 346.9 231.3 345.6Z" fill="#74C3D5"/>
<path d="M229 338L227.6 338.4C228 339.7 228.3 341 228.7 342.2L230 341.8C229.7 340.5 229.3 339.3 229 338Z" fill="#74C3D5"/>
<path d="M266.5 157.6C265.6 158.6 264.8 159.7 264 160.7L265.1 161.6C265.9 160.6 266.8 159.5 267.6 158.5L266.5 157.6Z" fill="#74C3D5"/>
<path d="M397.7 89.5992L397.6 88.1992C396.3 88.2992 394.9 88.4992 393.6 88.5992L393.8 89.9992C395.1 89.7992 396.4 89.6992 397.7 89.5992Z" fill="#74C3D5"/>
<path d="M405.7 88.9L405.6 87.5C404.3 87.6 402.9 87.7 401.6 87.8L401.7 89.2C403 89.1 404.3 89 405.7 88.9Z" fill="#74C3D5"/>
<path d="M389.8 90.4996L389.6 89.0996C388.3 89.2996 387 89.4996 385.6 89.6996L385.8 91.0996C387.2 90.8996 388.5 90.6996 389.8 90.4996Z" fill="#74C3D5"/>
<path d="M413.6 88.5992V87.1992C412.3 87.1992 410.9 87.2992 409.6 87.2992L409.7 88.6992C410.9 88.6992 412.3 88.5992 413.6 88.5992Z" fill="#74C3D5"/>
<path d="M358.8 97.5998L358.4 96.2998C357.1 96.6998 355.9 97.0998 354.6 97.4998L355.1 98.7998C356.3 98.3998 357.6 97.9998 358.8 97.5998Z" fill="#74C3D5"/>
<path d="M350.8 98.7998C349.5 99.2998 348.3 99.6998 347 100.2L347.5 101.5C348.7 101 350 100.6 351.2 100.1L350.8 98.7998Z" fill="#74C3D5"/>
<path d="M382 91.7994L381.7 90.3994C380.4 90.5994 379.1 90.8994 377.8 91.1994L378.1 92.5994C379.4 92.2994 380.7 92.0994 382 91.7994Z" fill="#74C3D5"/>
<path d="M366.5 95.2994L366.1 93.8994C364.8 94.2994 363.5 94.5994 362.2 94.9994L362.6 96.3994C363.9 95.9994 365.2 95.6994 366.5 95.2994Z" fill="#74C3D5"/>
<path d="M374.2 93.4L373.9 92C372.6 92.3 371.3 92.6 370 92.9L370.3 94.3C371.6 94 372.9 93.7 374.2 93.4Z" fill="#74C3D5"/>
<path d="M293.1 436.199L292.2 437.299C293.2 438.199 294.3 438.999 295.3 439.799L296.2 438.699C295.2 437.899 294.1 437.099 293.1 436.199Z" fill="#74C3D5"/>
<path d="M326.2 458.3L325.5 459.5C326.7 460.1 327.9 460.7 329.1 461.3L329.7 460C328.5 459.5 327.4 458.9 326.2 458.3Z" fill="#74C3D5"/>
<path d="M333.3 461.899L332.7 463.199C333.9 463.799 335.1 464.299 336.3 464.899L336.9 463.599C335.7 462.999 334.5 462.399 333.3 461.899Z" fill="#74C3D5"/>
<path d="M340.6 465.199L340 466.499C341.2 466.999 342.5 467.499 343.7 467.999L344.2 466.699C343 466.199 341.8 465.699 340.6 465.199Z" fill="#74C3D5"/>
<path d="M319.2 454.399L318.5 455.599C319.7 456.299 320.8 456.899 322 457.599L322.7 456.399C321.5 455.699 320.4 455.099 319.2 454.399Z" fill="#74C3D5"/>
<path d="M312.4 450.3L311.6 451.5C312.7 452.2 313.9 452.9 315 453.6L315.7 452.4C314.7 451.7 313.5 451 312.4 450.3Z" fill="#74C3D5"/>
<path d="M370.8 475.3L370.5 476.7C371.8 477 373.1 477.3 374.4 477.6L374.7 476.2C373.3 475.9 372 475.6 370.8 475.3Z" fill="#74C3D5"/>
<path d="M348 468.199L347.5 469.499C348.8 469.999 350 470.399 351.3 470.899L351.8 469.599C350.4 469.099 349.2 468.599 348 468.199Z" fill="#74C3D5"/>
<path d="M363.1 473.199L362.7 474.599C364 474.999 365.3 475.299 366.6 475.699L367 474.299C365.6 473.899 364.3 473.599 363.1 473.199Z" fill="#74C3D5"/>
<path d="M355.5 470.8L355.1 472.1C356.4 472.5 357.6 472.9 358.9 473.3L359.3 472C358 471.7 356.7 471.3 355.5 470.8Z" fill="#74C3D5"/>
<path d="M299.4 441.199L298.5 442.299C299.6 443.099 300.6 443.899 301.7 444.699L302.5 443.599C301.5 442.799 300.4 441.999 299.4 441.199Z" fill="#74C3D5"/>
<path d="M260.3 401.699L259.2 402.499C260 403.599 260.8 404.599 261.6 405.699L262.7 404.799C261.9 403.899 261.1 402.799 260.3 401.699Z" fill="#74C3D5"/>
<path d="M255.7 395.3L254.5 396.1C255.3 397.2 256 398.3 256.8 399.4L257.9 398.6C257.2 397.5 256.5 396.4 255.7 395.3Z" fill="#74C3D5"/>
<path d="M251.4 388.6L250.2 389.3C250.9 390.4 251.6 391.6 252.4 392.7L253.6 391.9C252.8 390.9 252.1 389.8 251.4 388.6Z" fill="#74C3D5"/>
<path d="M605.9 345.8C606.3 344.5 606.7 343.2 607.1 342L605.8 341.6C605.4 342.9 605 344.1 604.6 345.4L605.9 345.8Z" fill="#74C3D5"/>
<path d="M265.2 408L264.1 408.9C264.9 409.9 265.8 411 266.6 412L267.7 411.1C266.9 410.1 266 409.1 265.2 408Z" fill="#74C3D5"/>
<path d="M305.8 445.8L305 447C306.1 447.8 307.2 448.5 308.3 449.3L309.1 448.1C308 447.4 306.9 446.6 305.8 445.8Z" fill="#74C3D5"/>
<path d="M243.5 374.899L242.2 375.499C242.8 376.699 243.4 377.899 244.1 378.999L245.3 378.299C244.7 377.199 244.1 375.999 243.5 374.899Z" fill="#74C3D5"/>
<path d="M378.5 477L378.2 478.4C379.5 478.7 380.8 478.9 382.1 479.2L382.4 477.8C381.1 477.5 379.8 477.3 378.5 477Z" fill="#74C3D5"/>
<path d="M517.3 455.599C518.5 454.899 519.6 454.199 520.7 453.599L520 452.399C518.9 453.099 517.7 453.799 516.6 454.399L517.3 455.599Z" fill="#74C3D5"/>
<path d="M545.8 135.899L546.7 134.799C545.7 133.899 544.7 133.099 543.6 132.199L542.7 133.299C543.7 134.199 544.8 135.099 545.8 135.899Z" fill="#74C3D5"/>
<path d="M608.2 338.1C608.6 336.8 608.9 335.5 609.2 334.2L607.8 333.8C607.5 335.1 607.1 336.4 606.8 337.6L608.2 338.1Z" fill="#74C3D5"/>
<path d="M539.6 130.9L540.5 129.8C539.5 129 538.4 128.2 537.3 127.3L536.4 128.4C537.5 129.2 538.6 130.1 539.6 130.9Z" fill="#74C3D5"/>
<path d="M286 137.5L286.9 138.5C287.9 137.6 288.9 136.7 289.9 135.9L289 134.8C288 135.7 287 136.6 286 137.5Z" fill="#74C3D5"/>
<path d="M551.7 141.3L552.7 140.3C551.7 139.4 550.7 138.5 549.7 137.6L548.8 138.6C549.7 139.5 550.7 140.4 551.7 141.3Z" fill="#74C3D5"/>
<path d="M304.8 122.599L305.6 123.799C306.7 122.999 307.8 122.299 308.9 121.599L308.1 120.399C307 121.099 305.9 121.899 304.8 122.599Z" fill="#74C3D5"/>
<path d="M298.4 127.299L299.3 128.399C300.4 127.599 301.4 126.799 302.5 125.999L301.7 124.899C300.5 125.699 299.4 126.499 298.4 127.299Z" fill="#74C3D5"/>
<path d="M526.8 121.5L527.6 120.3C526.5 119.6 525.4 118.8 524.2 118.1L523.4 119.3C524.6 120 525.7 120.8 526.8 121.5Z" fill="#74C3D5"/>
<path d="M533.3 126.099L534.1 124.999C533 124.199 531.9 123.399 530.8 122.699L530 123.899C531.1 124.499 532.2 125.299 533.3 126.099Z" fill="#74C3D5"/>
<path d="M311.5 118.2L312.3 119.4C313.4 118.7 314.5 118 315.7 117.3L315 116.1C313.7 116.7 312.6 117.5 311.5 118.2Z" fill="#74C3D5"/>
<path d="M577.8 171.1L578.9 170.3C578.1 169.2 577.3 168.1 576.5 167.1L575.4 167.9C576.3 169 577.1 170 577.8 171.1Z" fill="#74C3D5"/>
<path d="M254.4 173.6L255.6 174.4C256.3 173.3 257.1 172.2 257.9 171.1L256.8 170.3C256 171.4 255.2 172.5 254.4 173.6Z" fill="#74C3D5"/>
<path d="M582.3 177.7L583.5 176.9C582.8 175.8 582 174.7 581.3 173.6L580.1 174.4C580.8 175.5 581.6 176.6 582.3 177.7Z" fill="#74C3D5"/>
<path d="M250.1 180.3L251.3 181C252 179.9 252.7 178.8 253.4 177.6L252.2 176.8C251.5 178.1 250.8 179.2 250.1 180.3Z" fill="#74C3D5"/>
<path d="M568.1 158.5L569.2 157.6C568.3 156.6 567.5 155.6 566.6 154.6L565.5 155.5C566.4 156.5 567.3 157.5 568.1 158.5Z" fill="#74C3D5"/>
<path d="M259.1 167.1L260.2 167.9C261 166.8 261.8 165.8 262.6 164.7L261.5 163.8C260.7 164.9 259.9 166 259.1 167.1Z" fill="#74C3D5"/>
<path d="M562.9 152.6L563.9 151.7C563 150.7 562.1 149.7 561.2 148.8L560.2 149.8C561.1 150.6 562 151.6 562.9 152.6Z" fill="#74C3D5"/>
<path d="M557.4 146.8L558.4 145.8C557.5 144.9 556.5 143.9 555.6 143L554.6 144C555.5 144.9 556.5 145.9 557.4 146.8Z" fill="#74C3D5"/>
<path d="M573.1 164.699L574.2 163.799C573.4 162.699 572.6 161.699 571.7 160.699L570.6 161.599C571.5 162.599 572.3 163.699 573.1 164.699Z" fill="#74C3D5"/>
<path d="M506.1 109.499L506.7 108.199C505.5 107.599 504.3 106.999 503.1 106.399L502.5 107.699C503.8 108.299 505 108.899 506.1 109.499Z" fill="#74C3D5"/>
<path d="M461.2 93.3992L461.5 91.9992C460.2 91.6992 458.9 91.3992 457.6 91.1992L457.3 92.5992C458.7 92.7992 460 93.0992 461.2 93.3992Z" fill="#74C3D5"/>
<path d="M484.2 99.9994L484.7 98.6994C483.4 98.1994 482.2 97.7994 480.9 97.3994L480.5 98.6994C481.7 99.0994 482.9 99.5994 484.2 99.9994Z" fill="#74C3D5"/>
<path d="M476.6 97.5L477 96.2C475.7 95.8 474.4 95.4 473.2 95L472.8 96.4C474.1 96.7 475.3 97.1 476.6 97.5Z" fill="#74C3D5"/>
<path d="M453.5 91.7992L453.8 90.3992C452.5 90.1992 451.2 89.8992 449.9 89.6992L449.7 91.0992C450.9 91.2992 452.2 91.4992 453.5 91.7992Z" fill="#74C3D5"/>
<path d="M469 95.2994L469.4 93.8994C468.1 93.5994 466.8 93.1994 465.5 92.8994L465.2 94.2994C466.4 94.5994 467.7 94.8994 469 95.2994Z" fill="#74C3D5"/>
<path d="M429.8 88.8998L429.9 87.4998C428.6 87.3998 427.2 87.3998 425.9 87.2998L425.8 88.6998C427.1 88.7998 428.5 88.7998 429.8 88.8998Z" fill="#74C3D5"/>
<path d="M417.6 88.4996H417.9C419.2 88.4996 420.6 88.4996 421.9 88.4996V87.0996C420.6 87.0996 419.2 87.0996 417.9 87.0996H417.6V88.4996Z" fill="#74C3D5"/>
<path d="M437.7 89.4992L437.8 88.0992C436.5 87.9992 435.1 87.7992 433.8 87.6992L433.7 89.0992C435.1 89.2992 436.4 89.3992 437.7 89.4992Z" fill="#74C3D5"/>
<path d="M445.6 90.4996L445.8 89.0996C444.5 88.8996 443.2 88.6996 441.8 88.5996L441.6 89.9996C443 90.0996 444.3 90.2996 445.6 90.4996Z" fill="#74C3D5"/>
<path d="M339.7 103.199L340.3 104.499C341.5 103.999 342.7 103.499 344 102.999L343.5 101.699C342.1 102.199 340.9 102.699 339.7 103.199Z" fill="#74C3D5"/>
<path d="M491.6 102.9L492.1 101.6C490.9 101.1 489.6 100.6 488.4 100.1L487.9 101.4C489.2 101.9 490.4 102.4 491.6 102.9Z" fill="#74C3D5"/>
<path d="M325.3 110.099L326 111.299C327.2 110.699 328.3 110.099 329.5 109.499L328.9 108.199C327.6 108.899 326.5 109.499 325.3 110.099Z" fill="#74C3D5"/>
<path d="M318.3 114L319 115.2C320.1 114.5 321.3 113.9 322.4 113.2L321.7 112C320.6 112.7 319.5 113.3 318.3 114Z" fill="#74C3D5"/>
<path d="M586.5 184.4L587.7 183.7C587 182.6 586.3 181.4 585.6 180.3L584.4 181C585.1 182.1 585.8 183.3 586.5 184.4Z" fill="#74C3D5"/>
<path d="M513.2 113.2L513.9 112C512.7 111.3 511.6 110.7 510.4 110.1L509.7 111.3C510.9 111.9 512 112.6 513.2 113.2Z" fill="#74C3D5"/>
<path d="M520.1 117.199L520.8 115.999C519.7 115.299 518.5 114.599 517.4 113.899L516.7 115.099C517.8 115.799 518.9 116.499 520.1 117.199Z" fill="#74C3D5"/>
<path d="M332.4 106.5L333 107.8C334.2 107.2 335.4 106.7 336.6 106.1L336 104.8C334.8 105.4 333.6 105.9 332.4 106.5Z" fill="#74C3D5"/>
<path d="M498.9 106L499.5 104.7C498.3 104.1 497.1 103.6 495.8 103.1L495.2 104.4C496.5 104.9 497.7 105.5 498.9 106Z" fill="#74C3D5"/>
<path d="M292.1 132.3L293 133.4C294 132.6 295 131.7 296.1 130.9L295.2 129.8C294.2 130.6 293.1 131.5 292.1 132.3Z" fill="#74C3D5"/>
<path d="M220.5 294.999L221.9 294.899C221.8 293.599 221.8 292.299 221.7 290.899H220.3C220.4 292.299 220.4 293.699 220.5 294.999Z" fill="#74C3D5"/>
<path d="M612.4 258.899L613.8 258.699C613.6 257.399 613.4 256.099 613.2 254.699L611.8 254.899C612 256.299 612.2 257.599 612.4 258.899Z" fill="#74C3D5"/>
<path d="M615.4 290.699C615.4 289.399 615.5 287.999 615.5 286.699H614.1C614.1 287.999 614.1 289.399 614 290.699H615.4Z" fill="#74C3D5"/>
<path d="M221.7 278.999C221.7 277.699 221.8 276.299 221.9 274.999L220.5 274.899C220.4 276.199 220.4 277.599 220.3 278.899L221.7 278.999Z" fill="#74C3D5"/>
<path d="M614.1 282.699H615.5C615.5 281.399 615.5 279.999 615.4 278.699H614C614 279.999 614.1 281.399 614.1 282.699Z" fill="#74C3D5"/>
<path d="M222.8 263.2C222.9 261.9 223.1 260.6 223.3 259.3L221.9 259.1C221.7 260.4 221.6 261.7 221.4 263.1L222.8 263.2Z" fill="#74C3D5"/>
<path d="M613.3 266.799L614.7 266.699C614.6 265.399 614.4 263.999 614.3 262.699L612.9 262.899C613 264.199 613.2 265.499 613.3 266.799Z" fill="#74C3D5"/>
<path d="M222.1 271.1C222.2 269.8 222.3 268.5 222.4 267.1L221 267C220.9 268.3 220.8 269.7 220.7 271L222.1 271.1Z" fill="#74C3D5"/>
<path d="M613.8 274.7L615.2 274.6C615.1 273.3 615.1 271.9 615 270.6L613.6 270.7C613.7 272.1 613.8 273.4 613.8 274.7Z" fill="#74C3D5"/>
<path d="M221.7 287C221.7 285.7 221.7 284.3 221.7 283H220.3C220.3 284.3 220.3 285.7 220.3 287H221.7Z" fill="#74C3D5"/>
<path d="M223.2 318.9L224.6 318.7C224.4 317.4 224.2 316.1 224 314.8L222.6 315C222.7 316.2 222.9 317.5 223.2 318.9Z" fill="#74C3D5"/>
<path d="M611.9 322.499C612.2 321.199 612.4 319.899 612.6 318.599L611.2 318.399C611 319.699 610.7 320.999 610.5 322.299L611.9 322.499Z" fill="#74C3D5"/>
<path d="M224.7 326.7L226.1 326.4C225.8 325.1 225.6 323.8 225.3 322.5L223.9 322.8C224.2 324.1 224.4 325.4 224.7 326.7Z" fill="#74C3D5"/>
<path d="M610.2 330.3C610.5 329 610.8 327.7 611.1 326.4L609.7 326.1C609.4 327.4 609.1 328.7 608.8 330L610.2 330.3Z" fill="#74C3D5"/>
<path d="M613.3 314.599C613.5 313.299 613.7 311.999 613.9 310.599L612.5 310.399C612.3 311.699 612.1 312.999 611.9 314.299L613.3 314.599Z" fill="#74C3D5"/>
<path d="M614.3 306.7C614.4 305.4 614.6 304 614.7 302.7L613.3 302.6C613.2 303.9 613 305.2 612.9 306.6L614.3 306.7Z" fill="#74C3D5"/>
<path d="M221.1 302.999L222.5 302.899C222.4 301.599 222.3 300.299 222.2 298.899L220.8 298.999C220.8 300.299 220.9 301.699 221.1 302.999Z" fill="#74C3D5"/>
<path d="M222 310.9L223.4 310.7C223.2 309.4 223.1 308.1 222.9 306.8L221.5 307C221.6 308.3 221.8 309.6 222 310.9Z" fill="#74C3D5"/>
<path d="M615 298.7C615.1 297.4 615.2 296 615.2 294.7L613.8 294.6C613.7 295.9 613.7 297.2 613.6 298.6L615 298.7Z" fill="#74C3D5"/>
<path d="M223.8 255.299C224 253.999 224.2 252.699 224.4 251.399L223 251.199C222.8 252.499 222.6 253.799 222.4 255.199L223.8 255.299Z" fill="#74C3D5"/>
<path d="M246 187.2L247.2 187.9C247.9 186.7 248.5 185.6 249.2 184.5L248 183.8C247.3 184.9 246.6 186 246 187.2Z" fill="#74C3D5"/>
<path d="M235.4 208.8L236.7 209.3C237.2 208.1 237.7 206.8 238.3 205.6L237 205C236.4 206.4 235.9 207.6 235.4 208.8Z" fill="#74C3D5"/>
<path d="M600.5 212.8L601.8 212.3C601.3 211.1 600.8 209.8 600.3 208.6L599 209.1C599.5 210.4 600 211.6 600.5 212.8Z" fill="#74C3D5"/>
<path d="M232.4 216.3L233.7 216.8C234.2 215.6 234.6 214.3 235.1 213.1L233.8 212.6C233.4 213.8 232.9 215 232.4 216.3Z" fill="#74C3D5"/>
<path d="M590.4 191.3L591.6 190.6C591 189.4 590.3 188.3 589.7 187.1L588.5 187.8C589.2 189 589.8 190.1 590.4 191.3Z" fill="#74C3D5"/>
<path d="M242.1 194.299L243.4 194.899C244 193.699 244.6 192.499 245.3 191.399L244.1 190.699C243.4 191.899 242.7 193.099 242.1 194.299Z" fill="#74C3D5"/>
<path d="M238.6 201.499L239.9 202.099C240.5 200.899 241 199.699 241.6 198.499L240.3 197.899C239.7 198.999 239.2 200.299 238.6 201.499Z" fill="#74C3D5"/>
<path d="M603.2 220.3L604.5 219.8C604.1 218.5 603.6 217.3 603.1 216L601.8 216.5C602.4 217.8 602.8 219 603.2 220.3Z" fill="#74C3D5"/>
<path d="M594.1 198.3L595.4 197.7C594.8 196.5 594.2 195.3 593.6 194.1L592.3 194.7C592.9 196 593.5 197.1 594.1 198.3Z" fill="#74C3D5"/>
<path d="M597.4 205.5L598.7 204.9C598.2 203.7 597.6 202.5 597.1 201.3L595.8 201.9C596.3 203.1 596.9 204.3 597.4 205.5Z" fill="#74C3D5"/>
<path d="M225.2 247.399C225.5 246.099 225.7 244.799 226 243.499L224.6 243.199C224.3 244.499 224.1 245.799 223.8 247.099L225.2 247.399Z" fill="#74C3D5"/>
<path d="M609.7 243.2L611.1 242.9C610.8 241.6 610.5 240.3 610.2 239L608.8 239.3C609.1 240.6 609.4 241.9 609.7 243.2Z" fill="#74C3D5"/>
<path d="M611.2 250.999L612.6 250.799C612.4 249.499 612.1 248.199 611.9 246.899L610.5 247.199C610.7 248.399 611 249.699 611.2 250.999Z" fill="#74C3D5"/>
<path d="M225.5 239.3L226.9 239.6C227.2 238.3 227.5 237 227.8 235.7L226.4 235.3C226.1 236.7 225.8 238 225.5 239.3Z" fill="#74C3D5"/>
<path d="M607.8 235.499L609.2 235.099C608.9 233.799 608.5 232.499 608.2 231.199L606.8 231.599C607.2 232.899 607.5 234.199 607.8 235.499Z" fill="#74C3D5"/>
<path d="M605.7 227.8L607 227.4C606.6 226.1 606.2 224.8 605.8 223.6L604.5 224C604.9 225.3 605.3 226.6 605.7 227.8Z" fill="#74C3D5"/>
<path d="M227.5 231.6L228.9 232C229.3 230.7 229.6 229.4 230 228.2L228.7 227.8C228.2 229 227.8 230.3 227.5 231.6Z" fill="#74C3D5"/>
<path d="M229.8 223.9L231.1 224.3C231.5 223 231.9 221.8 232.4 220.5L231.1 220C230.6 221.3 230.2 222.6 229.8 223.9Z" fill="#74C3D5"/>
<path d="M293.8 122.8C299.2 122.8 303.6 127.2 303.6 132.6C303.6 138 299.2 142.4 293.8 142.4C288.4 142.4 284 138 284 132.6C284 127.2 288.4 122.8 293.8 122.8Z" fill="#FF595A"/>
</svg>
