<svg width="570" height="264" viewBox="0 0 570 264" fill="none" xmlns="http://www.w3.org/2000/svg">
<path d="M38.1871 161.501C43.0394 145.82 49.6236 130.749 56.787 116.083C59.0937 111.31 61.5336 106.717 64.3036 102.269C64.7092 101.69 65.0164 101.128 65.7057 101.007C65.9027 100.972 66.1982 100.92 66.4125 100.984C66.5283 101.065 66.7253 101.03 66.8238 101.013C68.5964 100.7 69.953 96.298 70.2662 94.6181C70.2953 94.2068 70.3243 93.7955 70.2549 93.4016C69.9252 91.5304 68.3034 90.3947 66.4323 90.7244C65.8414 90.8285 65.0882 91.1643 64.4683 91.6798C62.1216 93.921 57.8041 101.688 56.2857 104.596C44.8977 126.403 35.6875 149.045 29.7442 172.939C26.7986 185.034 24.1484 197.077 23.6068 209.56C23.2923 216.419 23.3892 223.307 24.5867 230.102C25.6627 236.208 28.6503 242.789 34.6577 241.731C35.741 241.54 37.0851 241.1 38.4582 240.249C45.538 236.056 53.8594 223.928 57.8407 217.134C71.2565 194.157 82.9869 170.258 92.4061 145.345C92.9684 143.926 93.5306 142.507 94.0755 140.99C94.0928 141.088 94.2087 141.169 94.3072 141.152L92.9385 147.79C89.6046 160.563 87.4234 173.538 86.3776 186.618C85.39 198.875 84.5993 211.098 85.2394 223.373C85.314 226.102 85.5683 228.697 86.0196 231.258C86.6444 234.803 87.6631 238.279 89.2727 241.651C91.4034 246.251 96.1697 251.402 101.708 251.137C102.71 251.062 103.712 250.986 104.697 250.813C110.409 249.806 115.623 246.552 119.928 242.747C128.08 235.421 135.057 227.185 140.609 217.779C148.183 204.868 153.776 191.089 157.951 176.747C163.528 157.689 166.504 138.278 165.547 118.443C165.484 115.205 165.126 112.019 164.57 108.868C163.807 104.534 162.533 100.189 160.883 96.0123C156.947 86.3489 150.171 79.0136 141.911 73.0566C140.406 72.002 138.06 70.7907 136.09 71.1378C135.696 71.2072 135.221 71.3925 134.862 71.6589C134.323 72.0585 134.178 72.3886 134.248 72.7825C134.334 73.275 134.798 73.5995 135.29 73.5127L135.487 73.478C135.765 73.3274 136.061 73.2754 136.258 73.2407C137.439 73.0324 138.447 73.5656 139.357 74.1161C141.523 75.4606 143.428 77.054 145.171 78.8792C150.251 84.0766 154.872 89.5577 157.5 96.4055C159.388 101.353 160.765 106.289 161.616 111.114C163.594 122.341 163.157 133.69 162.1 145.553C160.66 160.429 156.798 174.817 151.865 188.887C148.949 197.118 145.258 204.978 141.021 212.629C135.006 223.437 127.432 232.895 117.971 240.858C116.29 242.271 114.593 243.586 112.745 244.622C110.537 245.925 107.623 247.251 104.767 247.754C101.32 248.362 97.8968 247.95 95.5049 245.325C91.8679 241.396 90.1485 236.826 89.2634 231.803C88.7428 228.848 88.5002 225.743 88.4546 222.604C88.1333 209.257 91.5621 187.228 93.2799 173.928C95.1543 159.788 97.8687 145.804 100.369 131.757C100.589 130.703 100.728 129.765 100.833 128.629C100.897 128.415 100.862 128.218 100.827 128.021C100.654 127.036 99.9239 126.352 99.136 126.491C98.5452 126.595 98.0237 127.094 97.6701 127.968C95.566 133.314 92.9175 138.452 90.9293 143.88C87.1498 154.7 82.5942 165.149 77.6099 175.471C71.1246 188.798 64.6219 202.028 56.7812 214.579C52.7652 221.176 44.154 233.965 37.2364 237.925C36.2226 238.51 35.2724 238.881 34.4846 239.02C32.121 239.436 30.4472 238.005 29.2836 234.859C28.8436 233.515 28.5022 232.154 28.2592 230.775C28.0509 229.593 27.9412 228.394 27.814 227.096C25.9655 205.083 31.8216 182.423 38.1871 161.501ZM180.849 182.358C190.906 180.078 209.094 164.586 215.091 157.132C215.334 156.784 215.398 156.57 215.381 156.472C215.346 156.275 215.23 156.194 215.132 156.211C214.935 156.246 214.755 156.379 214.593 156.61C208.034 163.757 193.786 175.102 184.552 179.167C183.422 179.67 182.356 179.96 181.273 180.151C177.235 180.862 174.588 179.095 174.033 175.943C173.755 174.368 173.935 172.508 174.804 170.527C175.528 170.603 176.137 170.597 176.727 170.493C177.712 170.319 178.645 169.85 179.445 169.202C182.104 167.007 184.862 164.795 187.29 162.437C188.512 161.308 189.237 159.657 189.979 158.105C190.431 157.213 190.553 156.176 190.379 155.191C190.084 153.517 188.74 152.231 186.672 152.595C185.884 152.734 185.015 152.989 184.117 153.655C177.547 157.859 173.41 163.767 171.786 171.262C171.438 172.745 171.42 174.373 171.698 175.948C172.392 179.888 175.137 183.364 180.258 182.462L180.849 182.358ZM185.478 156.766C185.419 159.315 180.002 165.448 175.993 167.475C178.45 162.98 181.011 159.076 185.478 156.766ZM251.475 161.687C254.632 160.013 260.513 154.204 263.561 151.332C262.86 153.689 262.413 156.916 262.881 159.575C263.385 162.431 265.082 164.569 268.922 163.892L269.513 163.788C278.209 161.849 293.169 149.363 298.263 141.967C298.344 141.851 298.326 141.753 298.326 141.753C298.309 141.654 298.309 141.654 298.21 141.672L298.112 141.689C296.739 142.54 282.021 159.857 268.627 162.218L268.529 162.235C266.658 162.565 265.777 161.603 265.5 160.027C264.788 155.989 267.756 148.054 268.064 145.766C268.127 145.552 268.075 145.256 268.023 144.961C267.867 144.074 267.317 143.257 266.529 143.396C266.43 143.414 266.251 143.547 266.152 143.564C265.677 143.749 265.289 144.427 264.895 144.497C264.797 144.514 264.797 144.514 264.681 144.433C263.401 142.932 261.061 142.329 258.796 142.728C256.925 143.058 254.978 144.112 253.645 145.768C251.322 148.716 249.56 151.971 248.557 155.499C248.273 156.768 248.07 157.92 247.884 159.172C247.837 159.484 247.791 159.797 247.843 160.093C248.086 161.471 249.523 162.132 250.704 161.924C251 161.872 251.197 161.837 251.475 161.687ZM253.104 154.799C253.84 152.639 256.384 148.636 258.36 147.171C258.801 146.789 259.276 146.604 259.67 146.534C260.457 146.396 261.315 146.651 262.079 147.531C259.222 151.487 257.2 153.265 253.596 156.439C253.417 156.572 253.237 156.705 253.139 156.722C253.04 156.74 252.924 156.659 252.872 156.363C252.785 155.871 253.023 154.915 253.104 154.799ZM301.001 157.731C306.123 153.376 311.049 142.151 314.903 135.785C315.366 136.11 315.615 136.37 315.668 136.666C315.754 137.158 315.511 137.506 315.383 137.935C312.42 149.931 309.261 161.962 308.389 174.3C308.214 176.768 308.33 178.575 308.555 179.856C308.989 182.318 309.933 183.065 310.623 182.944C311.017 182.874 311.341 182.411 311.254 181.919L311.202 181.623C310.901 181.067 310.78 180.378 310.676 179.787C310.45 178.506 310.537 177.273 310.607 175.94C310.944 173.241 311.164 170.46 311.715 167.825C317.213 140.252 325.747 113.769 338.931 88.9036C339.627 87.6641 340.108 86.3608 340.687 85.0402C340.815 84.6116 340.844 84.2003 340.792 83.9048C340.636 83.0185 339.86 82.6476 338.776 82.8385C338.382 82.9079 338.087 82.96 337.71 83.1279C337.154 83.429 336.766 84.1066 336.441 84.57C329.962 95.0535 326.531 104.391 322.149 115.825C320.236 120.528 317.779 125.023 315.472 129.796C313.173 128.272 311.244 127.698 309.471 128.01C308.191 128.236 306.818 129.087 305.416 130.349C299.969 135.168 295.993 144.296 294.497 151.363C294.166 152.945 294.114 154.375 294.305 155.459C294.774 158.118 296.511 159.335 298.481 158.988C299.367 158.831 300.201 158.38 301.001 157.731ZM299.768 152.465C301.519 146.267 304.394 140.684 308.722 135.859C309.649 134.782 310.205 134.481 310.796 134.377C311.289 134.29 311.816 134.4 312.818 134.325C308.559 141.27 305.301 148.139 299.635 154.012C299.675 153.091 299.623 152.795 299.768 152.465ZM337.245 157.132C339.227 152.822 340.879 148.368 343.075 144.122C347.045 136.112 351.676 128.391 357.945 121.905C358.97 120.81 360.129 119.895 361.172 118.899C361.34 119.275 361.41 119.669 361.462 119.965C361.566 120.556 361.554 121.065 361.525 121.477C360.371 128.179 358.921 134.933 358.195 141.762C358.091 142.898 358.218 144.195 358.426 145.377C358.53 145.968 358.634 146.559 358.837 147.133C359.364 148.969 360.719 149.746 362.196 149.485C362.787 149.381 363.361 149.179 363.899 148.779C367.967 145.93 373.415 134.206 375.993 132.127C377.336 136.866 378.748 143.725 384.187 145.204C385.884 145.615 387.512 145.633 389.186 145.338C394.799 144.349 399.968 139.681 403.578 135.389C407.025 131.329 410.908 126.279 413.348 121.686C413.232 121.605 413 121.442 412.786 121.379C410.242 125.381 406.104 131.289 403.143 134.654C399.76 138.499 394.771 143.034 389.551 143.954C387.976 144.231 386.33 144.115 384.714 143.588C379.849 141.907 379.862 136.218 378.559 132.284C377.951 130.564 377.007 129.816 375.825 130.025C375.235 130.129 374.597 130.546 373.914 131.275C372.042 133.331 366.74 141.272 364.694 144.07C363.947 145.014 362.967 145.795 361.681 147.139C361.525 146.253 361.305 145.581 361.201 144.99C361.131 144.596 361.16 144.185 361.207 143.872C361.393 140.894 361.596 138.015 362.113 135.183C362.89 130.375 365.296 122.132 364.961 117.927L364.857 117.336C364.544 115.563 363.27 114.671 361.596 114.966C361.202 115.035 360.71 115.122 360.252 115.406C353.856 118.868 345.813 129.12 341.988 135.074C341.502 135.769 341.131 136.545 339.937 137.263C340.731 134.28 341.416 131.824 341.984 129.287C342.077 128.661 342.088 128.151 342.002 127.659C341.776 126.379 340.768 125.845 339.783 126.019C339.094 126.14 338.457 126.557 337.987 127.351C336.822 129.384 335.461 131.452 335.037 133.659C333.854 140.772 333.001 148.03 332.031 155.207C331.863 156.557 331.84 157.577 331.996 158.463C332.274 160.039 333.084 160.606 334.069 160.433C335.153 160.242 336.358 159.014 337.245 157.132ZM416.502 141.235C428.065 136.557 440.088 124.691 448.507 115.997C449.029 115.499 449.174 115.169 449.156 115.071C449.122 114.874 448.925 114.909 448.826 114.926C448.728 114.943 448.531 114.978 448.45 115.094C446.201 117.318 443.971 119.64 441.705 121.766C436.896 126.167 422.075 137.714 415.894 139.515L415.303 139.619C413.432 139.948 412.517 138.79 412.204 137.017C411.892 135.244 412.315 133.037 412.86 131.52C414.547 127.262 416.547 123.051 418.349 118.875C418.72 118.099 419.305 117.387 419.381 116.663C419.445 116.448 419.392 116.153 419.34 115.857C419.184 114.971 418.553 114.27 417.568 114.443C416.78 114.582 415.882 115.248 414.746 116.87C411.275 121.95 407.803 130.482 408.833 136.9L408.868 137.097C409.475 140.544 411.711 142.283 414.862 141.727C415.355 141.64 415.928 141.438 416.502 141.235ZM422.186 108.959C424.608 107.72 425.599 106.428 425.425 105.443C425.339 104.951 424.759 104.545 423.821 104.406C422.981 104.249 422.274 104.272 421.585 104.394C419.418 104.776 418.676 106.328 418.902 107.608C419.093 108.692 419.956 109.555 421.236 109.329C421.532 109.277 421.81 109.127 422.186 108.959ZM410.448 83.2052C425.997 77.5203 446.122 74.1767 461.051 70.7335C462.036 70.56 462.546 70.5717 462.633 71.0641C462.685 71.3595 462.656 71.7708 462.366 72.4311C456.268 88.5338 438.94 143.475 438.096 160.581C437.992 161.716 438.049 162.62 438.188 163.408C438.553 165.476 439.578 166.108 440.563 165.934C441.548 165.761 442.475 164.683 442.712 163.728C442.776 163.513 442.759 163.415 442.742 163.316C442.585 162.43 441.305 162.656 440.627 162.267C440.604 161.56 440.547 160.657 440.622 159.933C443.049 137.978 459.013 93.7364 466.438 71.9165C466.792 71.0419 467.615 69.3737 469.092 69.1134C474.08 68.0313 497.368 63.6226 516.966 60.1689C529.966 57.878 541.309 55.9806 544.808 55.6687C545.318 55.6804 547.64 56.1849 548.33 56.0634L548.428 56.046C548.527 56.0287 549.292 55.1831 549.17 54.4937C549.101 54.0998 548.637 53.7753 547.519 53.7692C545.023 54.0062 541.854 54.463 539.374 54.7984C529.868 56.1691 496.853 61.2764 479.225 64.383C475.483 65.0425 472.43 65.5805 470.477 66.0261C469.788 66.1476 469.475 66.1012 469.423 65.8058C469.371 65.5103 469.516 65.1802 469.725 64.6357C471.22 61.0213 475.167 52.304 476.674 48.1798C477.19 47.0735 477.688 45.8687 477.55 45.0809C477.498 44.7854 477.364 44.6058 477.133 44.4436C476.223 43.893 475.383 43.7364 474.596 43.8753C473.512 44.0662 472.649 44.9291 472.017 45.9543C470.429 48.468 465.63 62.7173 464.748 65.208C464.285 66.6098 464.076 67.1542 462.518 67.5304C452.131 69.6655 430.852 74.5323 420.581 76.7485L415.165 77.7031C412.309 78.2064 409.684 78.8719 407.1 80.3427C405.333 81.2634 404.98 82.138 405.101 82.8274C405.136 83.0243 405.286 83.3024 405.42 83.482C405.802 83.9224 406.167 84.2643 407.545 84.0213C408.235 83.8998 409.202 83.6278 410.448 83.2052Z" fill="black"/>
</svg>
